HIERARCHY
ROOT Hips
{
	OFFSET 0.0000 0.0000 0.0000
	CHANNELS 6 Xposition Yposition Zposition Zrotation Xrotation Yrotation
	JOINT LeftFoot
	{
		OFFSET 2.5327 -6.9585 0.0000
		CHANNELS 3 Zrotation Xrotation Yrotation
	}
	JOINT RightFoot
	{
		OFFSET -2.4384 -6.6995 0.0000
		CHANNELS 3 Zrotation Xrotation Yrotation
	}
}
MOTION
Frames: 42
Frame Time: 0.008333
8.8721 15.7511 -31.7081 0.0000 0.0000 0.0000 0.0000 0.0000 0.0000 0.0000 0.0000 0.0000 
8.8721 15.7511 -31.7081 3.7012 5.5217 4.9122 -0.0990 -1.5271 -6.7045 -0.0436 -3.7106 1.5354 
8.8482 15.7496 -31.4727 2.9670 5.4483 4.9005 -0.0662 0.5881 -4.6771 -0.0174 -2.3527 1.0964 
8.8317 15.7527 -31.2268 2.6928 5.3687 5.0021 -0.0060 2.7583 -2.2738 -0.0045 -1.4888 1.4924 
8.8141 15.7664 -30.9831 2.2600 5.2919 4.9704 0.0747 5.0685 0.2820 -0.0013 -1.3777 1.8022 
8.7964 15.7773 -30.7435 1.6396 5.1209 4.9201 0.0653 4.6519 0.5991 0.0001 -1.4411 2.0711 
8.7841 15.7942 -30.5090 0.9447 4.7454 4.8795 0.0625 4.4649 1.1047 0.0064 -1.3763 2.6087 
8.7695 15.8202 -30.2798 0.4179 4.4355 4.7450 0.0811 5.0545 1.8903 0.0085 -1.7085 3.1408 
8.7494 15.8511 -30.0481 0.0984 4.3654 4.7111 0.1110 6.0695 3.6525 -0.0059 -2.6108 3.3167 
8.7309 15.8831 -29.8182 -0.3508 4.2570 4.8916 0.1589 7.4804 5.2861 -0.0289 -3.5848 3.3658 
8.7118 15.9114 -29.5996 -1.1017 4.1754 5.1227 0.2192 8.7982 6.2460 -0.0465 -4.2907 3.6264 
8.6893 15.9406 -29.3879 -1.8079 4.1322 5.3566 0.2730 9.9917 7.5528 -0.0657 -4.9882 3.9921 
8.6725 15.9810 -29.1793 -2.3312 3.9863 5.7154 0.3070 10.9207 8.9800 -0.0806 -5.5457 4.4754 
8.6622 16.0204 -28.9734 -3.0357 3.8441 6.0146 0.2171 10.2115 10.0670 -0.0836 -5.8248 5.0496 
8.6519 16.0575 -28.7695 -3.8399 3.7807 6.2571 -0.0207 7.4430 11.0650 -0.0893 -6.0928 5.4019 
8.6435 16.1065 -28.5706 -4.5903 3.7920 6.5523 -0.2152 4.6594 11.7178 -0.0993 -6.4022 5.6390 
8.6383 16.1540 -28.3745 -5.0594 3.7496 6.8712 -0.3448 2.2020 12.0588 -0.0896 -6.4134 6.1516 
8.6328 16.1993 -28.1802 -5.0376 3.6057 7.1160 -0.4423 0.1049 12.4894 -0.0659 -6.2630 6.8482 
8.6246 16.2520 -27.9900 -4.8636 3.5235 7.1158 -0.5140 -1.5753 12.9341 -0.0606 -6.4025 7.3070 
8.6167 16.2994 -27.8002 -4.6153 3.6176 6.9820 -0.5503 -2.6468 13.1745 -0.0582 -6.5482 7.6514 
8.6132 16.3288 -27.6133 -4.2496 3.6811 6.8888 -0.5964 -3.2721 13.6318 -0.0570 -6.7835 8.0989 
8.6100 16.3514 -27.4259 -4.0682 3.7840 6.6246 -0.6682 -3.6307 14.3898 -0.0653 -7.1997 8.5643 
8.6073 16.3829 -27.2345 -4.0020 4.0243 6.2229 -0.6580 -4.8196 14.2000 -0.0723 -7.5060 8.8889 
8.6044 16.4177 -27.0455 -3.8836 3.9794 6.0771 -2.0601 -3.9313 24.9651 -0.1029 -8.0203 8.9211 
8.5965 16.4424 -26.8630 -3.9510 3.8622 5.9094 -0.5637 -7.5582 13.3834 -0.1392 -8.4403 8.6285 
8.5877 16.4557 -26.6831 -4.2042 4.0215 5.3531 -0.4845 -8.4724 12.7191 -0.1571 -8.5621 8.2952 
8.5851 16.4662 -26.4948 -4.3642 4.2296 4.8041 -0.3766 -9.2500 11.7417 -0.1750 -8.8340 8.2907 
8.5920 16.4705 -26.3020 -4.3380 4.2589 4.4982 -1.7199 -8.9516 22.4526 -0.1815 -9.0939 8.6670 
8.5997 16.4674 -26.1191 -4.1602 4.2282 4.1126 -3.1476 -7.7021 29.7838 -0.1784 -9.2575 9.1318 
8.6017 16.4664 -25.9414 -3.9804 4.3554 3.5513 -3.7481 -8.3989 32.1482 -0.1926 -9.5890 9.4196 
8.6046 16.4628 -25.7567 -3.9199 4.5139 2.9586 -3.3890 -10.9831 30.5324 -0.2070 -9.9636 9.8136 
8.6127 16.4484 -25.5699 -3.9427 4.6560 2.5249 -2.3100 -14.1763 25.9691 -0.2140 -10.3616 10.4721 
8.6185 16.4305 -25.3930 -4.2370 4.8339 2.3025 -1.0494 -16.5241 19.6861 -0.2378 -10.8486 10.8782 
8.6167 16.4124 -25.2239 -4.5966 4.8605 2.0820 -0.1569 -17.2153 13.5169 -0.2711 -11.1816 10.7328 
8.6191 16.3909 -25.0485 -4.6462 4.8044 1.8194 0.2285 -16.6915 9.3170 -0.2994 -11.4922 10.6801 
8.6270 16.3826 -24.8641 -4.6855 4.7968 1.5924 0.3334 -16.2786 7.6367 -0.3201 -11.8769 11.0254 
8.6314 16.3819 -24.6825 -4.8176 4.8522 1.4480 0.3462 -16.2511 7.4389 -0.3302 -12.1438 11.3869 
8.6364 16.3663 -24.5030 -5.0056 5.0341 1.2590 0.3618 -16.2172 7.1916 -0.3153 -12.0650 11.5830 
8.6438 16.3489 -24.3186 -5.2118 5.1465 0.9835 0.4197 -16.5180 6.7176 -0.2927 -11.8483 11.6579 
8.6508 16.3362 -24.1298 -5.3994 5.1949 0.8164 0.4506 -16.7573 6.5544 -0.2591 -11.5546 11.8344 
8.6569 16.3336 -23.9391 -5.7013 5.3710 0.5778 0.4107 -16.3537 6.6576 -0.2000 -10.9802 12.0413 
8.6599 16.3461 -23.7504 -5.8011 5.6333 0.1854 0.3590 -15.6962 6.6669 -0.1624 -10.6182 12.1896 
